%TF.GenerationSoftware,KiCad,Pcbnew,7.0.6-0*%
%TF.CreationDate,2024-10-01T16:48:44-06:00*%
%TF.ProjectId,HCHCPrizeBadge,48434843-5072-4697-9a65-42616467652e,rev?*%
%TF.SameCoordinates,Original*%
%TF.FileFunction,Legend,Top*%
%TF.FilePolarity,Positive*%
%FSLAX46Y46*%
G04 Gerber Fmt 4.6, Leading zero omitted, Abs format (unit mm)*
G04 Created by KiCad (PCBNEW 7.0.6-0) date 2024-10-01 16:48:44*
%MOMM*%
%LPD*%
G01*
G04 APERTURE LIST*
%ADD10C,0.150000*%
%ADD11C,0.350000*%
%ADD12C,0.120000*%
%ADD13C,0.500000*%
G04 APERTURE END LIST*
D10*
X124693970Y-115558301D02*
X127233970Y-115558301D01*
X127233970Y-118098301D01*
X124693970Y-118098301D01*
X124693970Y-115558301D01*
X128270000Y-115570000D02*
X130810000Y-115570000D01*
X130810000Y-118110000D01*
X128270000Y-118110000D01*
X128270000Y-115570000D01*
D11*
X167076775Y-99000000D02*
G75*
G03*
X167076775Y-99000000I-21076775J0D01*
G01*
D10*
X124680071Y-111995750D02*
X127220071Y-111995750D01*
X127220071Y-114535750D01*
X124680071Y-114535750D01*
X124680071Y-111995750D01*
X124992950Y-111140436D02*
X125135807Y-111188055D01*
X125135807Y-111188055D02*
X125373902Y-111188055D01*
X125373902Y-111188055D02*
X125469140Y-111140436D01*
X125469140Y-111140436D02*
X125516759Y-111092816D01*
X125516759Y-111092816D02*
X125564378Y-110997578D01*
X125564378Y-110997578D02*
X125564378Y-110902340D01*
X125564378Y-110902340D02*
X125516759Y-110807102D01*
X125516759Y-110807102D02*
X125469140Y-110759483D01*
X125469140Y-110759483D02*
X125373902Y-110711864D01*
X125373902Y-110711864D02*
X125183426Y-110664245D01*
X125183426Y-110664245D02*
X125088188Y-110616626D01*
X125088188Y-110616626D02*
X125040569Y-110569007D01*
X125040569Y-110569007D02*
X124992950Y-110473769D01*
X124992950Y-110473769D02*
X124992950Y-110378531D01*
X124992950Y-110378531D02*
X125040569Y-110283293D01*
X125040569Y-110283293D02*
X125088188Y-110235674D01*
X125088188Y-110235674D02*
X125183426Y-110188055D01*
X125183426Y-110188055D02*
X125421521Y-110188055D01*
X125421521Y-110188055D02*
X125564378Y-110235674D01*
X125992950Y-111188055D02*
X125992950Y-110521388D01*
X125992950Y-110188055D02*
X125945331Y-110235674D01*
X125945331Y-110235674D02*
X125992950Y-110283293D01*
X125992950Y-110283293D02*
X126040569Y-110235674D01*
X126040569Y-110235674D02*
X125992950Y-110188055D01*
X125992950Y-110188055D02*
X125992950Y-110283293D01*
X126897711Y-110521388D02*
X126897711Y-111330912D01*
X126897711Y-111330912D02*
X126850092Y-111426150D01*
X126850092Y-111426150D02*
X126802473Y-111473769D01*
X126802473Y-111473769D02*
X126707235Y-111521388D01*
X126707235Y-111521388D02*
X126564378Y-111521388D01*
X126564378Y-111521388D02*
X126469140Y-111473769D01*
X126897711Y-111140436D02*
X126802473Y-111188055D01*
X126802473Y-111188055D02*
X126611997Y-111188055D01*
X126611997Y-111188055D02*
X126516759Y-111140436D01*
X126516759Y-111140436D02*
X126469140Y-111092816D01*
X126469140Y-111092816D02*
X126421521Y-110997578D01*
X126421521Y-110997578D02*
X126421521Y-110711864D01*
X126421521Y-110711864D02*
X126469140Y-110616626D01*
X126469140Y-110616626D02*
X126516759Y-110569007D01*
X126516759Y-110569007D02*
X126611997Y-110521388D01*
X126611997Y-110521388D02*
X126802473Y-110521388D01*
X126802473Y-110521388D02*
X126897711Y-110569007D01*
X127629577Y-115283582D02*
X127629577Y-114283582D01*
X127629577Y-114283582D02*
X128010529Y-114283582D01*
X128010529Y-114283582D02*
X128105767Y-114331201D01*
X128105767Y-114331201D02*
X128153386Y-114378820D01*
X128153386Y-114378820D02*
X128201005Y-114474058D01*
X128201005Y-114474058D02*
X128201005Y-114616915D01*
X128201005Y-114616915D02*
X128153386Y-114712153D01*
X128153386Y-114712153D02*
X128105767Y-114759772D01*
X128105767Y-114759772D02*
X128010529Y-114807391D01*
X128010529Y-114807391D02*
X127629577Y-114807391D01*
X128629577Y-114902629D02*
X129391482Y-114902629D01*
X131199048Y-117276560D02*
X131199048Y-116276560D01*
X131199048Y-116276560D02*
X131580000Y-116276560D01*
X131580000Y-116276560D02*
X131675238Y-116324179D01*
X131675238Y-116324179D02*
X131722857Y-116371798D01*
X131722857Y-116371798D02*
X131770476Y-116467036D01*
X131770476Y-116467036D02*
X131770476Y-116609893D01*
X131770476Y-116609893D02*
X131722857Y-116705131D01*
X131722857Y-116705131D02*
X131675238Y-116752750D01*
X131675238Y-116752750D02*
X131580000Y-116800369D01*
X131580000Y-116800369D02*
X131199048Y-116800369D01*
X132199048Y-116895607D02*
X132960953Y-116895607D01*
X132580000Y-117276560D02*
X132580000Y-116514655D01*
D12*
%TO.C,Meter+*%
X158825000Y-87630000D02*
G75*
G03*
X158825000Y-87630000I-3250000J0D01*
G01*
%TO.C,Meter-*%
X139775000Y-87630000D02*
G75*
G03*
X139775000Y-87630000I-3250000J0D01*
G01*
D13*
%TO.C,SAO v1.69bis*%
X142037000Y-108311000D02*
G75*
G03*
X142037000Y-108311000I-1000000J0D01*
G01*
%TD*%
M02*
